<?xml version="1.0" standalone="no"?>
<!DOCTYPE svg PUBLIC "-//W3C//DTD SVG 20010904//EN"
 "http://www.w3.org/TR/2001/REC-SVG-20010904/DTD/svg10.dtd">
<svg version="1.0" xmlns="http://www.w3.org/2000/svg"
 width="32.000000pt" height="32.000000pt" viewBox="0 0 32.000000 32.000000"
 preserveAspectRatio="xMidYMid meet">

<g transform="translate(0.000000,32.000000) scale(0.100000,-0.100000)"
fill="#000000" stroke="none">
<path d="M0 160 l0 -160 160 0 160 0 0 160 0 160 -160 0 -160 0 0 -160z m234
5 c36 -63 66 -117 66 -120 0 -3 -63 -5 -140 -5 -77 0 -140 2 -140 5 0 11 133
235 140 235 4 0 37 -52 74 -115z"/>
<path d="M132 215 c-9 -20 -9 -23 3 -18 8 3 15 14 15 24 0 25 -5 24 -18 -6z"/>
<path d="M170 223 c0 -12 7 -23 15 -27 13 -5 14 -2 4 17 -17 32 -19 33 -19 10z"/>
<path d="M116 164 c-22 -21 -20 -67 2 -87 10 -10 22 -17 25 -17 4 0 7 27 7 60
0 62 -7 71 -34 44z"/>
<path d="M170 120 c0 -63 7 -71 33 -42 21 23 22 66 1 86 -27 27 -34 18 -34
-44z"/>
<path d="M55 80 l-16 -30 41 0 41 0 -23 30 c-12 17 -23 30 -25 30 -1 0 -9 -13
-18 -30z"/>
<path d="M222 80 l-23 -30 41 0 41 0 -16 30 c-9 17 -17 30 -18 30 -2 0 -13
-13 -25 -30z"/>
</g>
</svg>
