<?xml version="1.0" standalone="no"?>
<!DOCTYPE svg PUBLIC "-//W3C//DTD SVG 20010904//EN"
 "http://www.w3.org/TR/2001/REC-SVG-20010904/DTD/svg10.dtd">
<svg version="1.0" xmlns="http://www.w3.org/2000/svg"
 width="268.000000pt" height="268.000000pt" viewBox="0 0 268.000000 268.000000"
 preserveAspectRatio="xMidYMid meet">

<g transform="translate(0.000000,268.000000) scale(0.100000,-0.100000)"
fill="#000000" stroke="none">
<path d="M0 1340 l0 -1340 1340 0 1340 0 0 1340 0 1340 -1340 0 -1340 0 0
-1340z m1422 968 c42 -73 214 -374 383 -668 169 -294 396 -688 503 -875 108
-187 210 -366 228 -397 l33 -58 -1229 0 -1229 0 188 328 c104 180 309 536 456
792 147 256 337 588 423 738 86 149 159 272 162 272 3 0 40 -60 82 -132z"/>
<path d="M1135 1833 c-71 -125 -131 -230 -133 -234 -2 -4 31 8 73 26 42 18
106 39 141 45 l64 12 0 189 c0 104 -3 189 -7 189 -5 0 -66 -103 -138 -227z"/>
<path d="M1410 1874 l0 -192 73 -16 c40 -9 101 -30 135 -46 34 -16 62 -28 62
-26 0 3 -118 209 -258 451 -9 16 -11 -22 -12 -171z"/>
<path d="M1215 1536 c-349 -86 -514 -498 -321 -800 80 -125 233 -228 352 -238
l39 -3 0 58 c-1 31 -2 268 -3 527 -1 259 -5 470 -9 469 -5 0 -30 -6 -58 -13z"/>
<path d="M1410 1076 c0 -259 3 -495 7 -525 l6 -53 41 6 c23 4 74 23 115 43
291 144 381 531 184 791 -77 101 -191 175 -305 199 l-48 11 0 -472z"/>
<path d="M510 744 c-91 -158 -166 -291 -168 -295 -2 -5 148 -9 333 -9 l337 0
-61 46 c-151 113 -247 282 -268 472 l-8 73 -165 -287z"/>
<path d="M1996 961 c-17 -190 -116 -364 -270 -478 l-58 -43 336 0 c185 0 336
2 336 5 0 4 -328 576 -334 583 -2 1 -6 -29 -10 -67z"/>
</g>
</svg>
