<?xml version="1.0" standalone="no"?>
<!DOCTYPE svg PUBLIC "-//W3C//DTD SVG 20010904//EN"
 "http://www.w3.org/TR/2001/REC-SVG-20010904/DTD/svg10.dtd">
<svg version="1.0" xmlns="http://www.w3.org/2000/svg"
 width="460.000000pt" height="460.000000pt" viewBox="0 0 460.000000 460.000000"
 preserveAspectRatio="xMidYMid meet">
<metadata>
Created by potrace 1.14, written by Peter Selinger 2001-2017
</metadata>
<g transform="translate(0.000000,460.000000) scale(0.100000,-0.100000)"
fill="#000000" stroke="none">
<path d="M0 3779 l0 -821 23 -19 22 -19 -22 -19 -23 -19 0 -1441 0 -1441 2300
0 2300 0 0 457 0 457 -20 -22 c-20 -22 -65 -29 -85 -14 -19 14 -44 68 -37 80
4 6 25 18 45 27 38 16 38 16 68 -16 l29 -31 0 424 c0 325 -3 427 -12 437 -10
11 -10 14 0 18 18 7 18 1753 0 1771 -10 10 -10 17 0 32 9 15 12 138 12 500 l0
480 -2300 0 -2300 0 0 -821z m1180 581 c25 -25 25 -41 0 -68 -23 -24 -41 -27
-71 -12 -22 12 -27 68 -7 88 18 18 56 14 78 -8z m2726 12 c39 -26 32 -80 -12
-101 -54 -24 -95 41 -53 85 23 24 45 30 65 16z m4 -242 c0 -5 9 -19 20 -30 14
-14 16 -20 6 -20 -8 0 -16 -7 -20 -15 -9 -25 2 -46 60 -108 18 -20 22 -57 5
-57 -3 0 -21 14 -39 30 -18 17 -36 30 -38 30 -13 0 -36 33 -45 62 -13 48 -11
62 12 92 21 26 39 34 39 16z m-2275 -267 c-38 -18 -71 -31 -74 -28 -8 9 11 21
61 39 26 10 50 22 54 27 3 5 10 6 16 2 7 -3 -19 -21 -57 -40z m-125 -58 c-7
-8 -17 -12 -23 -8 -6 3 -7 1 -3 -5 8 -14 -24 -72 -39 -71 -5 1 -17 1 -25 -1
-11 -1 -9 -4 5 -10 16 -7 12 -9 -20 -10 -22 -1 -32 -4 -23 -7 9 -2 16 -13 15
-24 -1 -20 -13 -26 -19 -8 -2 7 -11 7 -28 0 -18 -7 -20 -10 -7 -10 29 -1 19
-26 -15 -39 -23 -9 -29 -15 -20 -21 9 -5 -1 -15 -33 -32 -32 -17 -45 -29 -42
-41 5 -18 -29 -33 -39 -17 -8 14 -24 10 -18 -5 3 -8 -3 -16 -15 -19 -12 -3
-21 -11 -21 -19 0 -10 3 -9 10 2 6 9 10 10 10 3 0 -15 -40 -38 -59 -34 -9 2
-12 -3 -7 -14 5 -13 2 -15 -14 -10 -11 4 -20 3 -19 -2 1 -4 -2 -17 -6 -27 -8
-19 -9 -19 -16 0 -6 16 -8 15 -8 -8 -1 -28 -21 -51 -21 -24 0 20 -19 31 -33
17 -8 -8 -8 -11 1 -11 7 0 12 -7 12 -16 0 -11 -6 -13 -20 -9 -13 4 -25 -1 -37
-15 -55 -66 -63 -74 -63 -63 0 10 78 115 99 133 3 3 19 24 34 47 16 23 44 52
63 65 19 13 34 26 34 30 0 9 87 91 135 127 22 16 53 40 69 53 31 23 74 50 116
70 14 7 27 15 30 19 8 10 65 38 69 33 2 -2 -2 -10 -9 -19z m38 -37 c-12 -24
-21 -50 -20 -58 2 -11 1 -12 -6 -2 -6 9 -12 6 -20 -13 -7 -14 -12 -30 -12 -35
0 -5 -14 -23 -31 -41 -17 -17 -28 -37 -25 -45 3 -7 1 -16 -4 -19 -33 -21 33
144 70 175 3 3 16 22 29 43 31 51 47 47 19 -5z m-1043 7 c0 -23 -34 -33 -45
-14 -13 20 1 40 24 37 13 -2 21 -10 21 -23z m4045 0 c0 -15 -6 -25 -14 -25
-19 0 -27 25 -13 39 18 18 27 13 27 -14z m-3126 -107 c-3 -13 -11 -30 -16 -38
-8 -12 -8 -11 -4 3 3 10 6 27 6 38 0 10 5 19 11 19 6 0 8 -9 3 -22z m-34 -37
c0 -6 -4 -13 -10 -16 -5 -3 -10 1 -10 9 0 9 5 16 10 16 6 0 10 -4 10 -9z
m-962 -29 c3 -16 -2 -22 -16 -22 -21 0 -36 25 -26 41 10 17 39 5 42 -19z
m3445 -7 c36 -32 38 -81 2 -97 -54 -25 -100 32 -74 94 14 34 35 35 72 3z
m-2573 -80 c0 -5 -5 -3 -10 5 -5 8 -10 20 -10 25 0 6 5 3 10 -5 5 -8 10 -19
10 -25z m120 9 c0 -8 -4 -13 -9 -10 -5 4 -12 -7 -16 -23 -3 -16 -15 -37 -26
-47 -10 -9 -19 -24 -20 -33 0 -9 -3 -11 -5 -4 -7 15 57 144 67 137 5 -3 9 -12
9 -20z m2410 -109 c13 -33 3 -54 -28 -62 -33 -8 -56 8 -60 42 -4 32 11 45 51
45 20 0 30 -7 37 -25z m-2519 -106 c-5 -13 -10 -19 -10 -12 -1 15 10 45 15 40
3 -2 0 -15 -5 -28z m-357 -13 c-6 -15 -24 -23 -24 -11 0 8 24 34 28 30 1 -1 0
-10 -4 -19z m329 -56 c-3 -12 -8 -19 -11 -16 -5 6 5 36 12 36 2 0 2 -9 -1 -20z
m-429 -49 c-9 -18 -18 -30 -21 -27 -3 2 3 18 13 35 23 39 29 34 8 -8z m3561
-408 c40 -46 46 -76 24 -112 -22 -37 -54 -41 -93 -10 -33 26 -34 65 -3 113 27
43 41 44 72 9z m-3782 -31 c3 -4 3 -20 0 -35 -4 -22 -10 -27 -27 -25 -24 4
-33 33 -16 53 13 16 36 20 43 7z m537 -103 c-41 -11 -79 -24 -84 -29 -6 -6
-15 -10 -20 -10 -6 0 -1 7 11 15 24 16 116 44 148 43 11 0 -14 -8 -55 -19z
m-125 -49 c-3 -5 -13 -10 -21 -10 -19 0 -145 -117 -191 -176 -46 -61 -83 -101
-83 -91 0 5 31 45 68 90 73 87 164 171 204 186 30 13 30 13 23 1z m-869 -76
c8 -32 -6 -46 -42 -42 -51 6 -40 68 12 68 17 0 25 -7 30 -26z m190 -49 c4 -8
-1 -26 -10 -40 -13 -19 -21 -23 -39 -16 -23 9 -33 32 -23 57 7 19 65 18 72 -1z
m-84 -81 c10 -22 10 -28 -5 -39 -21 -15 -51 -9 -69 12 -10 13 -8 19 11 34 32
26 49 24 63 -7z m2821 -16 c100 -41 159 -118 183 -237 37 -183 -32 -352 -171
-421 -136 -67 -295 -3 -380 152 -29 51 -30 58 -30 178 0 109 3 130 22 166 83
156 235 221 376 162z m-2363 -102 c-5 -15 -8 -60 -5 -99 4 -59 3 -65 -5 -32
-13 56 -12 110 2 140 15 33 22 26 8 -9z m583 -68 c29 -12 69 -33 91 -46 21
-13 62 -32 90 -42 185 -65 285 -98 312 -104 53 -12 68 -37 61 -105 -8 -97 -50
-133 -173 -146 -87 -10 -340 19 -410 47 -72 29 -140 95 -155 150 -21 79 13
217 62 252 31 22 60 20 122 -6z m-935 -260 c22 -22 14 -67 -13 -80 -37 -17
-75 12 -75 57 0 34 1 35 38 35 21 0 43 -5 50 -12z m3947 -68 c3 -5 1 -10 -4
-10 -6 0 -11 5 -11 10 0 6 2 10 4 10 3 0 8 -4 11 -10z m-1 -116 c19 -19 20
-25 4 -59 -14 -32 -28 -32 -58 0 -20 21 -22 28 -12 50 13 29 43 33 66 9z m183
-145 c7 -6 13 -29 13 -49 0 -30 -6 -43 -26 -59 -31 -24 -46 -26 -77 -8 -32 18
-38 29 -31 62 10 47 43 78 78 71 16 -4 35 -11 43 -17z m-3939 -11 c17 -17 15
-65 -4 -72 -29 -11 -53 -6 -64 13 -14 27 -13 37 6 55 18 19 45 21 62 4z m3635
-139 c41 -22 50 -61 18 -79 -16 -8 -25 -5 -48 14 -24 21 -26 26 -15 50 13 30
15 30 45 15z m-3409 -45 c3 -9 4 -20 0 -25 -8 -13 -44 9 -44 26 0 20 36 19 44
-1z m3351 -68 c25 -38 1 -71 -44 -59 -26 7 -38 47 -21 68 18 22 47 18 65 -9z
m-3436 -126 c57 -30 15 -105 -43 -78 -35 15 -37 64 -3 78 29 11 26 11 46 0z
m3641 -38 c0 -34 -32 -57 -59 -43 -37 21 -36 66 3 81 30 11 56 -6 56 -38z
m-3806 -88 c23 -22 8 -39 -15 -18 -10 9 -19 21 -19 26 0 13 17 9 34 -8z m3936
8 c0 -11 -41 -34 -48 -28 -3 4 3 13 14 21 21 16 34 19 34 7z m-3727 -124 c7
-20 -12 -48 -33 -48 -10 0 -26 10 -35 23 -15 20 -14 23 6 39 22 19 53 11 62
-14z m3555 10 c14 -18 -3 -58 -24 -58 -30 0 -55 30 -43 51 11 22 51 25 67 7z
m-3789 -24 c29 -24 41 -54 23 -54 -5 0 -14 -11 -20 -25 -15 -32 -68 -35 -100
-5 -20 19 -21 23 -9 53 12 27 46 56 69 57 3 0 20 -12 37 -26z m3664 -155 c20
-25 22 -60 5 -77 -7 -7 -31 -12 -54 -12 -41 0 -42 1 -49 39 -10 57 8 85 48 77
18 -3 40 -16 50 -27z m-3298 -39 c0 -25 -5 -36 -18 -38 -24 -5 -47 16 -47 43
0 29 9 37 40 33 21 -3 25 -8 25 -38z m590 -344 c47 -72 -40 -149 -100 -90 -15
15 -21 94 -8 107 3 4 26 7 49 7 35 0 47 -5 59 -24z m2133 -44 c3 -27 -1 -34
-24 -42 -21 -8 -31 -7 -45 6 -38 34 -13 77 41 71 20 -2 26 -8 28 -35z m-1772
-154 c23 -24 23 -80 2 -102 -9 -9 -30 -19 -47 -22 -25 -5 -36 -1 -62 25 -23
23 -30 37 -25 54 3 12 6 32 6 44 0 17 7 22 33 25 48 5 74 -2 93 -24z m1436 13
c4 -3 10 -24 13 -46 6 -34 3 -44 -19 -68 -42 -46 -107 -28 -120 33 -7 37 15
86 41 93 21 5 75 -3 85 -12z"/>
<path d="M1456 3764 c-5 -14 -4 -15 9 -4 17 14 19 20 6 20 -5 0 -12 -7 -15
-16z"/>
<path d="M1380 3720 c0 -5 5 -10 11 -10 5 0 7 5 4 10 -3 6 -8 10 -11 10 -2 0
-4 -4 -4 -10z"/>
<path d="M1250 3580 c-12 -8 -11 -10 8 -10 12 0 22 5 22 10 0 13 -11 13 -30 0z"/>
<path d="M1022 3414 c-7 -8 -8 -14 -3 -14 10 0 25 19 20 25 -2 1 -10 -3 -17
-11z"/>
</g>
</svg>
